<?xml version="1.0" encoding="utf-8"?>
<!-- Generator: Adobe Illustrator 18.0.0, SVG Export Plug-In . SVG Version: 6.00 Build 0)  -->
<!DOCTYPE svg PUBLIC "-//W3C//DTD SVG 1.1//EN" "http://www.w3.org/Graphics/SVG/1.1/DTD/svg11.dtd">
<svg version="1.1" id="Calque_1" xmlns="http://www.w3.org/2000/svg" xmlns:xlink="http://www.w3.org/1999/xlink" x="0px" y="0px"
	 viewBox="0 0 246.6 119.3" enable-background="new 0 0 246.6 119.3" xml:space="preserve">
<path fill="#FFFFFF" d="M105.8,58.4c0,25.2-29.3,25.2-29.3,25.2h-8.4V33.2h8.4C76.5,33.2,105.8,33.2,105.8,58.4z M97.5,58.4
	c0-16.8-21-16.8-21-16.8v33.6C76.5,75.1,97.5,75.1,97.5,58.4z"/>
<path fill="#FFFFFF" d="M150.8,58.4c0,25.2-29.3,25.2-29.3,25.2h-8.4V33.2h8.4C121.5,33.2,150.8,33.2,150.8,58.4z M142.5,58.4
	c0-16.8-21-16.8-21-16.8v33.6C121.5,75.1,142.5,75.1,142.5,58.4z"/>
<path fill="#FFFFFF" d="M185.2,75.1v8.4h-27.1V33.2h8.4v42H185.2z"/>
<path fill="#FFFFFF" d="M223.2,33.2l-18.9,34.7v15.7l-4.4-3.1l-4.1,3.1V67.8l-18.9-34.7h10.3l12.9,24.2l12.9-24.2H223.2z"/>
<g>
	<path fill="#FFFFFF" d="M42,70.6c10.3,0,18.7-8.4,18.7-18.7c0-10.3-8.4-18.7-18.7-18.7c-10.3,0-18.7,8.4-18.7,18.7
		C23.3,62.2,31.7,70.6,42,70.6z M42,41.5c5.8,0,10.4,4.6,10.4,10.4c0,5.8-4.6,10.4-10.4,10.4c-5.8,0-10.4-4.6-10.4-10.4
		C31.7,46.1,36.3,41.5,42,41.5z"/>
	<path fill="#FFFFFF" d="M23.5,69.3v8.5L40.7,84c0,0,0,0,0,0.1c0,0.7,0.6,1.2,1.4,1.2c0.8,0,1.4-0.5,1.4-1.2c0,0,0,0,0-0.1l17.2-6.2
		v-8.5L42.1,76L23.5,69.3z"/>
</g>
</svg>
