<?xml version="1.0" encoding="utf-8"?>
<!-- Generator: Adobe Illustrator 18.0.0, SVG Export Plug-In . SVG Version: 6.00 Build 0)  -->
<!DOCTYPE svg PUBLIC "-//W3C//DTD SVG 1.1//EN" "http://www.w3.org/Graphics/SVG/1.1/DTD/svg11.dtd">
<svg version="1.1" id="Calque_1" xmlns="http://www.w3.org/2000/svg" xmlns:xlink="http://www.w3.org/1999/xlink" x="0px" y="0px"
	 viewBox="0 0 37.4 52" enable-background="new 0 0 37.4 52" xml:space="preserve">
<g>
	<path fill="#FFFFFF" d="M18.7,37.4c10.3,0,18.7-8.4,18.7-18.7C37.4,8.4,29,0,18.7,0C8.4,0,0,8.4,0,18.7C0,29,8.4,37.4,18.7,37.4z
		 M18.7,8.4c5.8,0,10.4,4.6,10.4,10.4c0,5.8-4.6,10.4-10.4,10.4c-5.8,0-10.4-4.6-10.4-10.4C8.4,13,13,8.4,18.7,8.4z"/>
	<path fill="#FFFFFF" d="M0.2,36.2v8.5l17.2,6.2c0,0,0,0,0,0.1c0,0.7,0.6,1.2,1.4,1.2c0.8,0,1.4-0.5,1.4-1.2c0,0,0,0,0-0.1l17.2-6.2
		v-8.5l-18.6,6.7L0.2,36.2z"/>
</g>
</svg>
